<?xml version="1.0" encoding="UTF-8"?>
<svg id="Layer_2" data-name="Layer 2" xmlns="http://www.w3.org/2000/svg" xmlns:xlink="http://www.w3.org/1999/xlink" viewBox="0 0 337.07 206.78">
  <defs>
    <style>
      .cls-1 {
        fill: url(#linear-gradient);
      }

      .cls-1, .cls-2, .cls-3 {
        stroke-width: 0px;
      }

      .cls-2 {
        fill: url(#linear-gradient-2);
      }

      .cls-3 {
        fill: url(#linear-gradient-3);
      }
    </style>
    <linearGradient id="linear-gradient" x1="113.31" y1="281.32" x2="46.93" y2="23.21" gradientUnits="userSpaceOnUse">
      <stop offset="0" stop-color="#0b9b3a"/>
      <stop offset=".1" stop-color="#37a93a"/>
      <stop offset=".22" stop-color="#68b93b"/>
      <stop offset=".34" stop-color="#92c73b"/>
      <stop offset=".47" stop-color="#b5d23c"/>
      <stop offset=".6" stop-color="#cfda3c"/>
      <stop offset=".73" stop-color="#e2e13c"/>
      <stop offset=".86" stop-color="#eee43c"/>
      <stop offset="1" stop-color="#f2e63d"/>
    </linearGradient>
    <linearGradient id="linear-gradient-2" x1="277.45" y1="240.64" x2="207.18" y2="-32.53" xlink:href="#linear-gradient"/>
    <linearGradient id="linear-gradient-3" x1="109.21" y1="282.35" x2="42.83" y2="24.27" xlink:href="#linear-gradient"/>
  </defs>
  <g id="Vextor">
    <g>
      <path class="cls-1" d="M105.98,47.76c-23.37,0-39.26,11.09-46.9,31.87-.08.24-.71,2.75-.94,2.75-.39,0-.32-2.6-.32-2.99v-27.54c0-.39-.31-.71-.71-.71H.71c-.39,0-.71.31-.71.71v154.22c0,.39.31.71.71.71h38.32c3.46,0,6.92-.47,10.31-1.34.47-.08,1.02-.24,1.57-.47,29.27-11.09,46.58-57.99,51.61-74.75.24-.79-.87-1.18-1.18-.47-19.12,36.43-35.96,52.48-48.39,59.33-11.02,6.06-24.79-.08-27.77-12.27-3.93-15.82,5.03-34.86,22.5-43.9,33.83-17.55,60.98-39.18,66.8-46.42.39-.47,1.18-.16,1.18.55-2.6,27.77,3.86,35.25,6.06,75.22,1.49,27.54-18.18,38-31.16,41.94-.08,0-.16,0-.24.08-.39.16-.71.24-1.18.31-.39.16-.86.24-1.34.31-3.23.79-6.14,1.26-8.5,1.42-1.18.16-2.52.31-3.78.47h83.25c.32,0,.63-.32.63-.71v-99.22c0-37.37-19.2-59.09-53.42-59.09Z"/>
      <path class="cls-2" d="M337.07,125.42v.16c0,51.85-5.43,81.2-44.06,81.2-.87,0-46.42,0-46.42-71.76v-3.46c0-.79,1.02-.94,1.34-.24,4.41,13.38,19.12,55.08,41.94,54.53,27.07-.55,29.27-28.25,10.23-48.15-14.71-15.34-39.89-26.2-59.01-51.54-.32-.39-1.02-.39-1.1.08-.71,2.52-3.93,8.65-7.87,16.92-4.72,9.99-10.62,23.13-14.48,36.74-7.79,27.7-7.4,57.44,27.46,66.88h-67.75c-.39,0-.71-.32-.71-.71v-102.14c0-19.06-6.23-37.59-17.75-52.77L120.56.63c0-.32,56.39-.63,56.79-.63h56.42c.35,0,.63.28.63.63v74.51c0,.39.31.71.71.71.24,0,.55-.24.63-.47,7.4-19.43,23.92-31,46.03-31,39.18,0,55.31,28.88,55.31,81.04Z"/>
      <path class="cls-3" d="M90.55,204.16c-.06.02-.12.04-.19.06-.72.24-1.57.47-2.52.68.88-.21,1.78-.46,2.7-.75Z"/>
    </g>
  </g>
</svg>